<svg width="20" height="20" viewBox="0 0 20 20" fill="none" xmlns="http://www.w3.org/2000/svg">
<g clip-path="url(#clip0_1_502)">
<path d="M14.9166 2.29163H5.74996C4.25419 2.29163 3.04163 3.50419 3.04163 4.99996V12.5C3.04163 13.9957 4.25419 15.2083 5.74996 15.2083H14.9166C16.4124 15.2083 17.625 13.9957 17.625 12.5V4.99996C17.625 3.50419 16.4124 2.29163 14.9166 2.29163Z" fill="white"/>
<path d="M7.49996 19.5833H12.5Z" fill="#6F7384"/>
<path d="M8.12496 10.735V5.93165C8.12496 5.77678 8.28794 5.67605 8.42646 5.74532L13.2297 8.14695C13.3833 8.22373 13.3833 8.44288 13.2297 8.51963L8.42646 10.9213C8.28794 10.9905 8.12496 10.8898 8.12496 10.735Z" fill="white"/>
<path d="M8.12496 6.24996V10.4166Z" fill="#6F7384"/>
<path d="M7.49996 19.5833H12.5M8.12496 6.24996V10.4166M5.74996 2.29163H14.9166C16.4124 2.29163 17.625 3.50419 17.625 4.99996V12.5C17.625 13.9957 16.4124 15.2083 14.9166 15.2083H5.74996C4.25419 15.2083 3.04163 13.9957 3.04163 12.5V4.99996C3.04163 3.50419 4.25419 2.29163 5.74996 2.29163ZM8.12496 10.735V5.93165C8.12496 5.77678 8.28794 5.67605 8.42646 5.74532L13.2297 8.14695C13.3833 8.22373 13.3833 8.44288 13.2297 8.51963L8.42646 10.9213C8.28794 10.9905 8.12496 10.8898 8.12496 10.735Z" stroke="#6F7384" stroke-width="1.25" stroke-linecap="round"/>
</g>
<defs>
<clipPath id="clip0_1_502">
<rect width="20" height="20" fill="white"/>
</clipPath>
</defs>
</svg>
